<?xml version="1.0" encoding="UTF-8" standalone="no"?>
<!DOCTYPE svg PUBLIC "-//W3C//DTD SVG 1.1//EN" "http://www.w3.org/Graphics/SVG/1.1/DTD/svg11.dtd">
<!-- Created with Vectornator (http://vectornator.io/) -->
<svg height="100%" stroke-miterlimit="10" style="fill-rule:nonzero;clip-rule:evenodd;stroke-linecap:round;stroke-linejoin:round;" version="1.1" viewBox="0 0 1000 1000" width="100%" xml:space="preserve" xmlns="http://www.w3.org/2000/svg" xmlns:vectornator="http://vectornator.io" xmlns:xlink="http://www.w3.org/1999/xlink">
<defs/>
<g id="Capa-1" vectornator:layerName="Capa 1">
<path d="M348.316 346.023" fill="#000000" fill-rule="nonzero" opacity="1" stroke="#000000" stroke-linecap="butt" stroke-linejoin="round" stroke-width="0.01" vectornator:layerName="Curva 5"/>
<path d="M332.282 345.843L348.918 345.843L348.969 375.072L332.282 375.072L332.282 345.843Z" fill="#000000" fill-rule="nonzero" opacity="1" stroke="#000000" stroke-linecap="butt" stroke-linejoin="round" stroke-width="0.01" vectornator:layerName="Rectángulo 22"/>
<path d="M400.624 401.816L400.624 442.112L371.395 442.119L371.472 401.779L400.624 401.816Z" fill="#000000" fill-rule="nonzero" opacity="1" stroke="#000000" stroke-linecap="butt" stroke-linejoin="round" stroke-width="0.01" vectornator:layerName="Rectángulo 23"/>
<path d="M639.39 351.034L685.981 577.47" fill="#000000" fill-rule="nonzero" opacity="1" stroke="#000000" stroke-linecap="butt" stroke-linejoin="round" stroke-width="0.01" vectornator:layerName="Curva 2"/>
<path d="M879.501 480.596L902.07 480.596L902.07 509.872L879.501 509.872L879.501 480.596Z" fill="#000000" fill-rule="nonzero" opacity="1" stroke="#000000" stroke-linecap="butt" stroke-linejoin="round" stroke-width="0.01" vectornator:layerName="Rectángulo 18"/>
<path d="M348.304 480.643L402.03 480.643L402.03 509.872L348.304 509.872L348.304 480.643Z" fill="#000000" fill-rule="nonzero" opacity="1" stroke="#000000" stroke-linecap="butt" stroke-linejoin="round" stroke-width="0.01" vectornator:layerName="Rectángulo 8"/>
<path d="M348.304 480.643L402.03 480.643L402.03 509.872L348.304 509.872L348.304 480.643Z" fill="#000000" fill-rule="nonzero" opacity="1" stroke="#000000" stroke-linecap="butt" stroke-linejoin="round" stroke-width="0.01" vectornator:layerName="Rectángulo 9"/>
<path d="M332.058 607.896L352.184 607.896L352.184 637.125L332.058 637.125L332.058 607.896Z" fill="#000000" fill-rule="nonzero" opacity="1" stroke="#000000" stroke-linecap="butt" stroke-linejoin="round" stroke-width="0.01" vectornator:layerName="Rectángulo 24"/>
<path d="M401.973 509.872L401.41 578.161L372.162 577.92L372.725 509.631L401.973 509.872Z" fill="#000000" fill-rule="nonzero" opacity="1" stroke="#000000" stroke-linecap="butt" stroke-linejoin="round" stroke-width="0.01" vectornator:layerName="Rectángulo 25"/>
<path d="M480.894 528.205L513.211 528.863L513.437 636.471L480.415 636.471L480.894 528.205Z" fill="#000000" fill-rule="nonzero" opacity="1" stroke="#000000" stroke-linecap="butt" stroke-linejoin="round" stroke-width="0.01" vectornator:layerName="Rectángulo 10"/>
<path d="M257.205 481.656L288.769 481.704L288.769 510.932L257.107 510.932L257.205 481.656Z" fill="#ff9e1e" fill-rule="nonzero" opacity="1" stroke="#ff9e1e" stroke-linecap="butt" stroke-linejoin="round" stroke-width="0.01" vectornator:layerName="Rectángulo 6"/>
<path d="M255.193 607.896L296.865 607.242L296.865 636.471L257.107 636.471L255.193 607.896Z" fill="#ff9e1e" fill-rule="nonzero" opacity="1" stroke="#ff9e1e" stroke-linecap="butt" stroke-linejoin="round" stroke-width="0.01" vectornator:layerName="Rectángulo 7"/>
<path d="M258.256 345.843L296.865 345.843L296.865 375.072L258.256 375.072L258.256 345.843Z" fill="#3395ff" fill-rule="nonzero" opacity="1" stroke="#ff9e1e" stroke-linecap="butt" stroke-linejoin="round" stroke-width="0.01" vectornator:layerName="Rectángulo 4"/>
<path d="M257.107 345.843L296.865 345.843L296.865 375.072L257.107 375.072L257.107 345.843Z" fill="#ff9e1e" fill-rule="nonzero" opacity="1" stroke="#ff9e1e" stroke-linecap="butt" stroke-linejoin="round" stroke-width="0.01" vectornator:layerName="Rectángulo 5"/>
<path d="M127.617 419.749L161.217 419.749L161.217 572.544L127.617 572.544L127.617 419.749Z" fill="#ff9e1e" fill-rule="nonzero" opacity="1" stroke="#ff9e1e" stroke-linecap="butt" stroke-linejoin="round" stroke-width="0.01" vectornator:layerName="Rectángulo 1"/>
<path d="M839.461 419.92L873.061 419.92L873.061 572.715L839.461 572.715L839.461 419.92Z" fill="#000000" fill-rule="nonzero" opacity="1" stroke="#000000" stroke-linecap="butt" stroke-linejoin="round" stroke-width="0.01" vectornator:layerName="Rectángulo 14"/>
<path d="M167.698 393.976L201.972 393.976L201.972 597.927L167.698 597.927L167.698 393.976Z" fill="#ff9e1e" fill-rule="nonzero" opacity="1" stroke="#ff9e1e" stroke-linecap="butt" stroke-linejoin="round" stroke-width="0.01" vectornator:layerName="Rectángulo 2"/>
<path d="M798.408 393.976L832.681 393.976L832.681 597.927L798.408 597.927L798.408 393.976Z" fill="#000000" fill-rule="nonzero" opacity="1" stroke="#000000" stroke-linecap="butt" stroke-linejoin="round" stroke-width="0.01" vectornator:layerName="Rectángulo 13"/>
<path d="M226.207 345.843L258.256 345.843L258.256 636.471L226.207 636.471L226.207 345.843Z" fill="#ff9e1e" fill-rule="nonzero" opacity="1" stroke="#ff9e1e" stroke-linecap="butt" stroke-linejoin="round" stroke-width="0.01" vectornator:layerName="Rectángulo 3"/>
<path d="M99.4273 481.656L121.996 481.656L121.996 510.932L99.4273 510.932L99.4273 481.656Z" fill="#ff9e1e" fill-rule="nonzero" opacity="1" stroke="#ff9e1e" stroke-linecap="butt" stroke-linejoin="round" stroke-width="0.01" vectornator:layerName="Rectángulo 15"/>
<path d="M861.167 465.858L861.167 465.858L861.167 466.844L861.167 466.844L861.167 465.858Z" fill="#000000" fill-rule="nonzero" opacity="1" stroke="#000000" stroke-linecap="butt" stroke-linejoin="round" stroke-width="0.01" vectornator:layerName="Rectángulo 16"/>
<path d="M421.453 350.062L480.913 529.029L513.221 529.171L574.081 350.062L544.029 350.062L500 487.149C500.567 492.676 453.941 350.062 453.941 350.062" fill="#000000" fill-rule="nonzero" opacity="1" stroke="#000000" stroke-linecap="butt" stroke-linejoin="round" stroke-width="0.01" vectornator:layerName="Curva 1"/>
<path d="M596 350.062L595.455 636.471L623.238 636.471L623.457 413.926L669.978 636.471L700.803 636.471L745.711 410.853L745.766 636.471L775.987 636.471L775.647 351.034L731.27 351.034L685.981 577.47L639.39 350.062L596 350.062Z" fill="#000000" fill-rule="nonzero" opacity="1" stroke="#000000" stroke-linecap="butt" stroke-linejoin="round" stroke-width="0.01" vectornator:layerName="Curva 3"/>
<path d="M348.304 345.843C400.637 346.024 400.624 402.365 400.624 402.365L371.461 402.474C371.461 402.474 371.494 374.991 348.304 375.072" fill="#000000" fill-rule="nonzero" opacity="1" stroke="#000000" stroke-linecap="butt" stroke-linejoin="round" stroke-width="0.01" vectornator:layerName="Curva 6"/>
<path d="M372.162 577.47C371.914 603.889 362.968 607.974 357.521 608.024C352.074 608.074 352.184 607.896 352.184 607.896C352.184 607.896 322.741 636.958 352.184 637.125C381.627 637.291 400.942 631.045 401.3 590.533C401.657 550.021 401.384 578.161 401.384 578.161" fill="#000000" fill-rule="nonzero" opacity="1" stroke="#000000" stroke-linecap="butt" stroke-linejoin="round" stroke-width="0.01" vectornator:layerName="Curva 7"/>
</g>
</svg>
